<svg id="Ebene_1" data-name="Ebene 1" xmlns="http://www.w3.org/2000/svg" viewBox="0 0 1078.57 1078.57"><defs><style>.cls-1{fill:#2d2e2c;}.cls-2{fill:#c7c7c6;}.cls-3{fill:#fff;}.cls-4{fill:#e63817;}.cls-5{fill:none;stroke:#fff;stroke-miterlimit:10;stroke-width:34.52px;}</style></defs><title>schickmalzzwo-tictactoe_fuer_die_ganz_cleveren</title><rect class="cls-1" width="1078.57" height="1078.57"/><path class="cls-2" d="M348.52,589.58h0a15.14,15.14,0,0,1-21.42,0l-24.51-24.51-24.51,24.51a15.14,15.14,0,0,1-21.42,0h0a15.14,15.14,0,0,1,0-21.42l24.51-24.51-24.51-24.51a15.14,15.14,0,0,1,0-21.42h0a15.16,15.16,0,0,1,21.42,0l24.51,24.51,24.51-24.51a15.16,15.16,0,0,1,21.42,0h0a15.16,15.16,0,0,1,0,21.42L324,543.65l24.51,24.51A15.16,15.16,0,0,1,348.52,589.58Z" transform="translate(-1.43)"/><path class="cls-3" d="M802.31,806.53h0a15.14,15.14,0,0,1-21.42,0L756.38,782l-24.51,24.5a15.14,15.14,0,0,1-21.42,0h0a15.16,15.16,0,0,1,0-21.42L735,760.61,710.45,736.1a15.16,15.16,0,0,1,0-21.42h0a15.14,15.14,0,0,1,21.42,0l24.51,24.5,24.51-24.5a15.14,15.14,0,0,1,21.42,0h0a15.14,15.14,0,0,1,0,21.42L777.8,760.61l24.51,24.5A15.14,15.14,0,0,1,802.31,806.53Z" transform="translate(-1.43)"/><path class="cls-4" d="M580.19,365.15h0a15.14,15.14,0,0,1-21.42,0l-24.51-24.5-24.51,24.5a15.14,15.14,0,0,1-21.42,0h0a15.16,15.16,0,0,1,0-21.42l24.51-24.5-24.51-24.51a15.16,15.16,0,0,1,0-21.42h0a15.14,15.14,0,0,1,21.42,0l24.51,24.5,24.51-24.5a15.14,15.14,0,0,1,21.42,0h0a15.14,15.14,0,0,1,0,21.42l-24.51,24.51,24.51,24.5A15.14,15.14,0,0,1,580.19,365.15Z" transform="translate(-1.43)"/><path class="cls-4" d="M580.19,589.58h0a15.14,15.14,0,0,1-21.42,0l-24.51-24.51-24.51,24.51a15.14,15.14,0,0,1-21.42,0h0a15.16,15.16,0,0,1,0-21.42l24.51-24.51-24.51-24.51a15.16,15.16,0,0,1,0-21.42h0a15.16,15.16,0,0,1,21.42,0l24.51,24.51,24.51-24.51a15.16,15.16,0,0,1,21.42,0h0a15.14,15.14,0,0,1,0,21.42l-24.51,24.51,24.51,24.51A15.14,15.14,0,0,1,580.19,589.58Z" transform="translate(-1.43)"/><line class="cls-5" x1="417.25" y1="261.61" x2="417.25" y2="825.69"/><line class="cls-5" x1="648.41" y1="261.61" x2="648.41" y2="825.69"/><line class="cls-5" x1="250.79" y1="659.23" x2="814.87" y2="659.23"/><line class="cls-5" x1="250.79" y1="428.07" x2="814.87" y2="428.07"/></svg>