<svg alt="schickmalzwo" id="Ebene_1" data-name="Ebene 1" xmlns="http://www.w3.org/2000/svg" viewBox="0 0 1080 1080"><defs><style>.cls-1{fill:#f0f0f0;}.cls-2{fill:#e63817;}.cls-3{fill:#c7c7c6;}.cls-4{fill:#2d2e2c;}</style></defs><rect class="cls-1" width="1080" height="1080"/><path class="cls-2" d="M597.89,610.81h0a30.34,30.34,0,0,0,0-42.91L548.8,518.8l-42.92-42.91-49.09-49.1a30.34,30.34,0,0,0-42.91,0h0a30.35,30.35,0,0,0,0,42.92L463,518.8l42.91,42.92L555,610.81A30.34,30.34,0,0,0,597.89,610.81Z"/><path class="cls-3" d="M597.89,426.79h0a30.34,30.34,0,0,0-42.91,0l-49.1,49.1L463,518.8l-49.09,49.1a30.32,30.32,0,0,0,0,42.91h0a30.34,30.34,0,0,0,42.91,0l49.09-49.09L548.8,518.8l49.09-49.09A30.35,30.35,0,0,0,597.89,426.79Z"/><path class="cls-4" d="M236.78,609.65V428a9.37,9.37,0,0,1,16-6.63l97.47,97.47-97.47,97.47A9.37,9.37,0,0,1,236.78,609.65Z"/><path class="cls-4" d="M680,417.91h19.1a42,42,0,0,1,42,42V577.7a42,42,0,0,1-42,42H680a0,0,0,0,1,0,0V417.91A0,0,0,0,1,680,417.91Z"/><path class="cls-2" d="M824.12,417.91h19.1a0,0,0,0,1,0,0V619.7a0,0,0,0,1,0,0h-19.1a42,42,0,0,1-42-42V459.91A42,42,0,0,1,824.12,417.91Z"/><rect class="cls-4" x="475.54" y="488.46" width="60.69" height="60.69" transform="translate(-218.68 509.67) rotate(-45)"/></svg>