<svg id="Ebene_1" data-name="Ebene 1" xmlns="http://www.w3.org/2000/svg" viewBox="0 0 1090.35 1090.35"><defs><style>.cls-1{fill:#f0f0f0;}.cls-2{fill:#c7c7c6;}.cls-3{fill:#e63817;}</style></defs><title>schickmalzzwo-schriftlogo_chinese</title><rect class="cls-1" width="1090.35" height="1090.35"/><path class="cls-2" d="M405.27,301.35H456.9V624.92H407.71V399l3.34,14.24L364.1,567.72H336.5l-46.95-150L294,399V624.92H243.7V301.35h53l53.63,175.8Z" transform="translate(0 10.35)"/><path class="cls-2" d="M556.89,301.35h38.72l77.22,323.57H618.09L576.25,412.84,534.41,624.92H479.67ZM532.19,523h88.12v51.63H532.19Z" transform="translate(0 10.35)"/><path class="cls-2" d="M700.06,301.35h55.19V624.92H700.06ZM722.75,572H839.36v53H722.75Z" transform="translate(0 10.35)"/><path class="cls-2" d="M377.45,699.72,297.11,921.37h82.56v53H240.37v-49l81-221.65h-77v-53H377.45Z" transform="translate(0 10.35)"/><path class="cls-2" d="M507.9,650.76h42.73L585.57,875.3l16.24-224.54h56.08L616.5,974.33h-53L530.6,765.14,495.22,974.33h-53L400.64,650.76h56.08L473,875.3Z" transform="translate(0 10.35)"/><path class="cls-2" d="M722.58,968.65a64,64,0,0,1-28.37-26q-9.8-17-9.79-41.06v-178q0-24,9.79-41.17a63.28,63.28,0,0,1,28.37-26q18.58-8.9,44.62-8.9t44.62,8.9a63.28,63.28,0,0,1,28.37,26Q850,699.5,850,723.53v178q0,24-9.8,41.06a64,64,0,0,1-28.37,26q-18.59,9-44.62,9T722.58,968.65Zm59.2-49.51a21.72,21.72,0,0,0,9.23-9.57,33.51,33.51,0,0,0,3.12-15.13V730.21A33,33,0,0,0,791,715.3a21.67,21.67,0,0,0-9.23-9.57,30,30,0,0,0-14.58-3.34,29.27,29.27,0,0,0-14.46,3.34,21.83,21.83,0,0,0-9.13,9.57,33,33,0,0,0-3.11,14.91V894.44a33.51,33.51,0,0,0,3.11,15.13,21.88,21.88,0,0,0,9.13,9.57,29.27,29.27,0,0,0,14.46,3.34A30,30,0,0,0,781.78,919.14Z" transform="translate(0 10.35)"/><path class="cls-2" d="M270.08,270.67A30.61,30.61,0,0,1,257,257.8q-4.55-8.42-4.55-20.24v-8.15l25.84-.21v8.15q0,5.76,3.24,9.05t9,3.3q5.65,0,8.74-3.25t3.08-8.89V224.28a11.64,11.64,0,0,0-2.35-7.27,21.63,21.63,0,0,0-6.07-5.33q-3.71-2.25-10.09-5.39-.42-.21-.78-.42l-.79-.42-1.36-.62a87.46,87.46,0,0,1-14.43-9,36.83,36.83,0,0,1-9.94-12.29q-4-7.62-4-18.82v-7.85q0-11.61,4.44-19.92a29.92,29.92,0,0,1,12.92-12.71q8.47-4.4,20.39-4.39,11.61,0,20,4.39A29.62,29.62,0,0,1,323,137.1q4.39,8.43,4.39,20.24v8.58l-25.83.31v-8.68c0-3.9-1-7-3-9.15s-4.76-3.3-8.32-3.3c-3.76,0-6.67,1-8.73,3s-3.08,4.73-3.08,8.22v10.14a12.41,12.41,0,0,0,2.24,7.43,20.1,20.1,0,0,0,5.65,5.28q3.41,2.15,9.47,5.18c.76.35,1.55.73,2.35,1.15s1.62.83,2.46,1.25l.37.21a2.87,2.87,0,0,0,.36.21,114.93,114.93,0,0,1,14,8.53,31.91,31.91,0,0,1,9.1,11q3.76,7.11,3.76,18.2v12.65q0,11.82-4.44,20.24a30.12,30.12,0,0,1-12.92,12.87q-8.47,4.44-20.29,4.44T270.08,270.67Z" transform="translate(0 10.35)"/><path class="cls-2" d="M364.86,270.56a30.15,30.15,0,0,1-12.5-13.23Q348,248.66,348,236.41V158.6q0-12.24,4.34-20.92a30.15,30.15,0,0,1,12.5-13.23q8.16-4.56,19.66-4.55t19.72,4.55a29.79,29.79,0,0,1,12.5,13.28q4.29,8.73,4.29,21v12.24H394.77V158.7a17.6,17.6,0,0,0-1.15-6.69,9,9,0,0,0-3.5-4.34,10.14,10.14,0,0,0-5.6-1.52,10,10,0,0,0-5.44,1.46,9.21,9.21,0,0,0-3.5,4.29,17.1,17.1,0,0,0-1.2,6.7v77.81a16.62,16.62,0,0,0,1.2,6.64,9.17,9.17,0,0,0,3.5,4.24,9.91,9.91,0,0,0,5.44,1.47,10.28,10.28,0,0,0,5.65-1.47,8.91,8.91,0,0,0,3.45-4.24,17.48,17.48,0,0,0,1.15-6.74V224.07H421v12.24q0,12.24-4.29,21a29.79,29.79,0,0,1-12.5,13.28q-8.22,4.56-19.72,4.55T364.86,270.56Z" transform="translate(0 10.35)"/><path class="cls-2" d="M440.81,121.47h25.94V273.54H440.81Zm12.35,64.95h50.93v24.37H453.16Zm34.09-64.95h25.94V273.54H487.25Z" transform="translate(0 10.35)"/><path class="cls-2" d="M561,273.54H535.07V121.47H561Z" transform="translate(0 10.35)"/><path class="cls-2" d="M599.73,270.56a30.21,30.21,0,0,1-12.5-13.23q-4.34-8.67-4.34-20.92V158.6q0-12.24,4.34-20.92a30.21,30.21,0,0,1,12.5-13.23q8.16-4.56,19.67-4.55t19.71,4.55a29.74,29.74,0,0,1,12.5,13.28q4.29,8.73,4.29,21v12.24H629.65V158.7A17.8,17.8,0,0,0,628.5,152a9.05,9.05,0,0,0-3.51-4.34,10.1,10.1,0,0,0-5.59-1.52,9.94,9.94,0,0,0-5.44,1.46,9.17,9.17,0,0,0-3.51,4.29,17.1,17.1,0,0,0-1.2,6.7v77.81a16.62,16.62,0,0,0,1.2,6.64,9.13,9.13,0,0,0,3.51,4.24,9.86,9.86,0,0,0,5.44,1.47,10.25,10.25,0,0,0,5.64-1.47,8.87,8.87,0,0,0,3.46-4.24,17.67,17.67,0,0,0,1.15-6.74V224.07H655.9v12.24q0,12.24-4.29,21a29.74,29.74,0,0,1-12.5,13.28q-8.21,4.56-19.71,4.55T599.73,270.56Z" transform="translate(0 10.35)"/><path class="cls-2" d="M675.69,121.47h25.94V273.54H675.69Zm20.6,81.79,29.6-81.79h29.29L696.29,249.38Zm9.52-12.76,17.78-15.59L760,273.54H731.54Z" transform="translate(0 10.35)"/><path class="cls-3" d="M517.84,342.69q29.79,1.24,117-.84-6,17.29-9.37,27.29-66.85.19-114.13-.63-32.07,0-47.28-19.16-17.7,16.88-25.2,25.41L427,341.85q10.62-9,20.83-17.28V267.09H428.92V239.6h47.69v84.55Q492,342.69,517.84,342.69ZM457.86,168q15.63,19.17,30.2,40-11.65,7.5-25.61,16.87Q450,205,434.12,183.16ZM630.72,281H568.45c-.28,1.25-.55,2.36-.83,3.33q30.61,14.37,56.86,28.95l-17.92,26.24q-26.44-18.12-50.39-31.45-14,19.38-42.07,33.74-12.09-11-24.37-21.66,38.94-16,47.48-39.15H485.15v-25.2h55.19q.4-9.59.41-21.87h-47.9v-25.2h34.78q-12.5-14.16-23.74-25.61l20.83-15q11.65,9.38,28.53,26-10.83,7.5-19.37,14.58H564.5q11-17.49,23.11-40.82,21.45,10.83,28.12,14-5.41,6.66-20.41,26.86h29.57V234H570.74q0,12.09-.41,21.87h60.39Z" transform="translate(0 10.35)"/><path class="cls-3" d="M467.44,643.06H439.12V501h49.15V478.53H430V451H632.39v27.49H573.24V501h49V614.53q0,11.34-4.48,18.17A20.77,20.77,0,0,1,605,641.6q-8.28,2.08-34.21,2.08-1.66-9.57-5.62-27.69,11.46.82,19.16.83,9.59,0,9.58-11.46V590.79L582,602q-10.41-12.6-21.14-24.36a140.65,140.65,0,0,1-26.14,40.81q-9.78-8.33-23.11-17.7,30.61-33.1,34.36-73.1H513.47q-.53,6.26-1.46,12.29l23.75,18.53-17.08,21.66-13.33-12.39a147.58,147.58,0,0,1-26,47.59q-5.62-5.94-11.88-11.87Zm0-58.94Q483.18,560,487,527.68H467.44ZM514.51,501h32.08V478.53H514.51Zm79.35,70.29V527.68H572.51a165.62,165.62,0,0,1-2.91,20.93Q582.62,560.39,593.86,571.31Z" transform="translate(0 10.35)"/><path class="cls-3" d="M550.75,714.13,547.21,720q29.77,48.1,87.89,79.34Q623,815.56,615.31,827.43q-57.48-32.7-83.93-80-26,45-84.34,82.68-6-9.58-19.37-27.49,60-36.24,90.8-88.52Zm-35.61,75.81H547V916.78H515.14Z" transform="translate(0 10.35)"/></svg>