<svg id="Ebene_1" data-name="Ebene 1" xmlns="http://www.w3.org/2000/svg" viewBox="0 0 437.93 437.93"><defs><style>.cls-1{fill:#e63817;}.cls-2{fill:#c7c7c6;}.cls-3{fill:#2d2e2c;}</style></defs><title>schickmalzzwo-piktogramme_mal</title><path class="cls-1" d="M739.68,739.68h0a65.87,65.87,0,0,0,0-93.13L633.13,540,540,446.87,433.45,340.32a65.87,65.87,0,0,0-93.13,0h0a65.87,65.87,0,0,0,0,93.13L446.87,540,540,633.13,646.55,739.68A65.87,65.87,0,0,0,739.68,739.68Z" transform="translate(-321.04 -321.04)"/><path class="cls-2" d="M739.68,340.32h0a65.87,65.87,0,0,0-93.13,0L540,446.87,446.87,540,340.32,646.55a65.87,65.87,0,0,0,0,93.13h0a65.87,65.87,0,0,0,93.13,0L540,633.13,633.13,540,739.68,433.45A65.87,65.87,0,0,0,739.68,340.32Z" transform="translate(-321.04 -321.04)"/><rect class="cls-3" x="474.15" y="474.15" width="131.71" height="131.71" transform="translate(-544.71 218.96) rotate(-45)"/></svg>