<svg id="Ebene_1" data-name="Ebene 1" 
  xmlns="http://www.w3.org/2000/svg" viewBox="0 0 836.57 836.57">
  <defs>
    <style>.cls-1{fill:#fff;}.cls-2{fill:none;stroke:#fff;stroke-miterlimit:10;stroke-width:34.57px;}</style>
  </defs>
  <title>schickmalzzwo-schriftlogo</title>
  <path class="cls-1" d="M456.47,400.05H490.3v193H458.07V458.33l2.19,8.5L429.49,559H411.41l-30.77-89.49,2.92-11.15V593.09H350.61v-193h34.7l35.14,104.88Z" transform="translate(-121.72 -123.26)"/>
  <path class="cls-1" d="M555.82,400.05H581.2l50.6,193H595.92L568.51,466.56,541.1,593.09H505.22ZM539.64,532.28h57.74v30.8H539.64Z" transform="translate(-121.72 -123.26)"/>
  <path class="cls-1" d="M649.63,400.05H685.8v193H649.63Zm14.88,161.44h76.41v31.6H664.51Z" transform="translate(-121.72 -123.26)"/>
  <path class="cls-1" d="M438.24,637.71,385.6,770h54.1v31.6H348.42V772.34L401.5,640.1H351V608.51h87.2Z" transform="translate(-121.72 -123.26)"/>
  <path class="cls-1" d="M523.72,608.51h28l22.89,134,10.65-134H622l-27.13,193h-34.7L538.6,676.75l-23.19,124.8h-34.7l-27.27-193h36.74l10.65,134Z" transform="translate(-121.72 -123.26)"/>
  <path class="cls-1" d="M664.39,798.16a40.78,40.78,0,0,1-18.59-15.53q-6.42-10.15-6.41-24.5V651.92q0-14.34,6.41-24.56a40.32,40.32,0,0,1,18.59-15.54q12.18-5.3,29.24-5.31t29.24,5.31a40.32,40.32,0,0,1,18.59,15.54q6.42,10.23,6.42,24.56V758.13q0,14.34-6.42,24.5a40.78,40.78,0,0,1-18.59,15.53q-12.18,5.37-29.24,5.38T664.39,798.16Zm38.79-29.54a13.56,13.56,0,0,0,6.05-5.71,18.54,18.54,0,0,0,2-9v-98a18.22,18.22,0,0,0-2-8.89,13.56,13.56,0,0,0-6.05-5.71,21.22,21.22,0,0,0-9.55-2,20.8,20.8,0,0,0-9.48,2,13.71,13.71,0,0,0-6,5.71,18.22,18.22,0,0,0-2,8.89v98a18.54,18.54,0,0,0,2,9,13.71,13.71,0,0,0,6,5.71,20.8,20.8,0,0,0,9.48,2A21.22,21.22,0,0,0,703.18,768.62Z" transform="translate(-121.72 -123.26)"/>
  <path class="cls-1" d="M367.89,381.74a19.16,19.16,0,0,1-8.6-7.67,23.22,23.22,0,0,1-3-12.08v-4.86l16.92-.13v4.87a7,7,0,0,0,2.13,5.4,8.33,8.33,0,0,0,5.89,2A7.92,7.92,0,0,0,387,367.3a7,7,0,0,0,2-5.31v-7.92a6.56,6.56,0,0,0-1.55-4.34,13.9,13.9,0,0,0-4-3.18c-1.62-.89-3.83-2-6.61-3.21l-.52-.25c-.16-.09-.33-.17-.51-.25l-.89-.38a58.51,58.51,0,0,1-9.46-5.33,21.65,21.65,0,0,1-9.12-18.57v-4.68A23,23,0,0,1,359.29,302a18.78,18.78,0,0,1,8.46-7.58,31.06,31.06,0,0,1,13.36-2.62,30,30,0,0,1,13.09,2.62,18.56,18.56,0,0,1,8.37,7.64,23.88,23.88,0,0,1,2.87,12.07v5.12l-16.92.19v-5.18a6.81,6.81,0,0,0-7.41-7.43,8.43,8.43,0,0,0-5.72,1.78,6.19,6.19,0,0,0-2,4.9v6.05a6.93,6.93,0,0,0,1.47,4.43,12.76,12.76,0,0,0,3.7,3.15q2.23,1.29,6.21,3.09c.5.21,1,.44,1.54.69l1.61.75.24.12.24.13a77.26,77.26,0,0,1,9.18,5.08,19.65,19.65,0,0,1,6,6.59A21.43,21.43,0,0,1,406,354.44V362a23.7,23.7,0,0,1-2.91,12.08,18.86,18.86,0,0,1-8.46,7.67,30.6,30.6,0,0,1-13.3,2.66A31.17,31.17,0,0,1,367.89,381.74Z" transform="translate(-121.72 -123.26)"/>
  <path class="cls-1" d="M430,381.68a18.92,18.92,0,0,1-8.19-7.89A25.63,25.63,0,0,1,419,361.31V314.88a25.68,25.68,0,0,1,2.84-12.48,18.92,18.92,0,0,1,8.19-7.89,32.08,32.08,0,0,1,25.81,0,18.66,18.66,0,0,1,8.19,7.92A26.1,26.1,0,0,1,466.8,315v7.3H449.59V315a9.81,9.81,0,0,0-.75-4,5.61,5.61,0,0,0-2.29-2.59,7.18,7.18,0,0,0-3.67-.9,7,7,0,0,0-3.57.87,5.61,5.61,0,0,0-2.29,2.56,9.25,9.25,0,0,0-.79,4v46.43a9.05,9.05,0,0,0,.79,4,5.64,5.64,0,0,0,2.29,2.53,7,7,0,0,0,3.57.87,7.31,7.31,0,0,0,3.7-.87,5.47,5.47,0,0,0,2.26-2.53,9.68,9.68,0,0,0,.75-4V354H466.8v7.3A26.09,26.09,0,0,1,464,373.76a18.66,18.66,0,0,1-8.19,7.92,32,32,0,0,1-25.81,0Z" transform="translate(-121.72 -123.26)"/>
  <path class="cls-1" d="M479.76,292.73h17v90.73h-17Zm8.09,38.75h33.38V346H487.85Zm22.34-38.75h17v90.73h-17Z" transform="translate(-121.72 -123.26)"/>
  <path class="cls-1" d="M558.53,383.46h-17V292.73h17Z" transform="translate(-121.72 -123.26)"/>
  <path class="cls-1" d="M583.9,381.68a18.81,18.81,0,0,1-8.19-7.89,25.52,25.52,0,0,1-2.85-12.48V314.88a25.57,25.57,0,0,1,2.85-12.48,18.81,18.81,0,0,1,8.19-7.89,32.06,32.06,0,0,1,25.8,0,18.56,18.56,0,0,1,8.19,7.92A26.1,26.1,0,0,1,620.7,315v7.3H603.5V315a9.65,9.65,0,0,0-.76-4,5.56,5.56,0,0,0-2.29-2.59,7.16,7.16,0,0,0-3.67-.9,7,7,0,0,0-3.56.87,5.63,5.63,0,0,0-2.3,2.56,9.4,9.4,0,0,0-.79,4v46.43a9.2,9.2,0,0,0,.79,4,5.66,5.66,0,0,0,2.3,2.53,7,7,0,0,0,3.56.87,7.29,7.29,0,0,0,3.7-.87,5.41,5.41,0,0,0,2.26-2.53,9.52,9.52,0,0,0,.76-4V354h17.2v7.3a26.09,26.09,0,0,1-2.81,12.51,18.56,18.56,0,0,1-8.19,7.92,32,32,0,0,1-25.8,0Z" transform="translate(-121.72 -123.26)"/>
  <path class="cls-1" d="M633.67,292.73h17v90.73h-17Zm13.5,48.8,19.39-48.8h19.19l-38.58,76.32Zm6.23-7.62,11.66-9.29,23.85,58.84H670.26Z" transform="translate(-121.72 -123.26)"/>
  <circle class="cls-2" cx="418.28" cy="418.28" r="401"/>
</svg>