<svg id="Ebene_1" data-name="Ebene 1" xmlns="http://www.w3.org/2000/svg" viewBox="0 0 1077.08 1077.08"><defs><style>.cls-1{fill:#2d2e2c;}.cls-2{fill:#fff;}</style></defs><title>schickmalzzwo-piktogramme_auf_dunkelgrau</title><rect class="cls-1" width="1077.08" height="1077.08"/><path class="cls-2" d="M616,659.78h0a39.49,39.49,0,0,1-55.86,0l-63.92-63.91-63.92,63.91a39.49,39.49,0,0,1-55.86,0h0a39.49,39.49,0,0,1,0-55.86L440.39,540l-63.91-63.92a39.49,39.49,0,0,1,0-55.86h0a39.49,39.49,0,0,1,55.86,0l63.92,63.91,63.92-63.91a39.49,39.49,0,0,1,55.86,0h0a39.49,39.49,0,0,1,0,55.86L552.13,540,616,603.92A39.49,39.49,0,0,1,616,659.78Z" transform="translate(-2.92 -2.92)"/><path class="cls-2" d="M145.93,658.27V421.73a12.19,12.19,0,0,1,20.82-8.62L293.65,540,166.75,666.89A12.19,12.19,0,0,1,145.93,658.27Z" transform="translate(-2.92 -2.92)"/><path class="cls-2" d="M720,405.73h37.54a42,42,0,0,1,42,42v178.7a42,42,0,0,1-42,42H720a0,0,0,0,1,0,0V405.73a0,0,0,0,1,0,0Z"/><path class="cls-2" d="M895,405.73H932.5a0,0,0,0,1,0,0v262.7a0,0,0,0,1,0,0H895a42,42,0,0,1-42-42V447.73a42,42,0,0,1,42-42Z"/></svg>