<?xml version="1.0" standalone="no"?>
<!DOCTYPE svg PUBLIC "-//W3C//DTD SVG 20010904//EN"
 "http://www.w3.org/TR/2001/REC-SVG-20010904/DTD/svg10.dtd">
<svg version="1.0" xmlns="http://www.w3.org/2000/svg"
 width="700.000000pt" height="700.000000pt" viewBox="0 0 700.000000 700.000000"
 preserveAspectRatio="xMidYMid meet">
<metadata>
Created by potrace 1.11, written by Peter Selinger 2001-2013
</metadata>
<g transform="translate(0.000000,700.000000) scale(0.100000,-0.100000)"
fill="#000000" stroke="none">
<path d="M3278 6996 c-1 -2 -41 -6 -88 -10 -47 -4 -98 -9 -115 -11 -16 -2 -48
-6 -70 -9 -22 -3 -49 -7 -60 -10 -11 -2 -40 -7 -65 -10 -25 -3 -60 -10 -77
-15 -18 -5 -33 -8 -33 -6 0 3 -11 0 -26 -5 -14 -6 -39 -12 -57 -15 -99 -18
-306 -83 -463 -145 -251 -100 -524 -245 -706 -375 -31 -22 -66 -47 -78 -55
-44 -29 -186 -144 -265 -214 -357 -314 -681 -755 -865 -1176 -23 -52 -46 -104
-51 -115 -47 -102 -149 -429 -175 -560 -3 -15 -19 -93 -29 -135 0 -3 -4 -27
-9 -55 -18 -121 -19 -125 -33 -275 -15 -162 -8 -594 12 -710 2 -14 6 -47 9
-75 47 -409 240 -956 467 -1319 30 -47 59 -94 64 -104 71 -124 286 -389 456
-561 159 -161 421 -374 575 -468 161 -98 215 -129 304 -175 210 -109 538 -234
715 -274 6 -1 38 -9 72 -18 82 -21 234 -50 323 -61 25 -3 56 -7 69 -10 135
-26 695 -26 839 -1 19 4 89 14 142 21 19 3 46 7 60 10 14 3 41 8 60 11 60 10
301 73 400 105 208 67 459 177 636 279 48 28 89 50 91 50 2 0 9 5 16 10 7 6
64 44 127 86 246 164 491 378 673 589 33 39 63 72 67 75 17 13 181 236 245
335 221 338 406 777 481 1140 16 75 54 300 60 350 4 33 9 76 11 95 8 73 10
519 2 602 -13 141 -22 208 -39 308 -6 36 -13 79 -16 95 -26 146 -111 431 -186
620 -205 516 -585 1040 -998 1375 -30 25 -57 48 -60 51 -3 3 -50 40 -106 81
-399 296 -889 517 -1359 613 -44 9 -89 19 -100 21 -11 2 -38 6 -60 9 -22 3
-51 7 -65 10 -13 2 -54 7 -90 11 -36 3 -78 8 -95 11 -33 5 -531 13 -537 9z
m542 -299 c14 -3 52 -9 85 -12 97 -12 128 -17 220 -35 28 -6 59 -12 70 -14
124 -24 419 -118 550 -175 176 -77 355 -172 490 -259 68 -45 205 -141 215
-152 3 -3 23 -19 45 -35 95 -71 275 -240 385 -361 155 -171 308 -383 419 -581
62 -111 171 -337 171 -356 0 -7 4 -17 9 -22 9 -10 73 -193 109 -315 39 -127
83 -347 97 -480 3 -30 10 -89 15 -130 8 -75 6 -543 -3 -590 -3 -14 -8 -50 -12
-80 -14 -118 -16 -135 -21 -149 -3 -8 -7 -30 -10 -50 -11 -74 -68 -290 -109
-416 -399 -1203 -1481 -2063 -2745 -2182 -165 -15 -592 -8 -710 12 -14 2 -38
6 -55 8 -342 53 -676 157 -957 298 -369 185 -723 455 -975 745 -28 32 -62 70
-74 84 -12 14 -59 75 -104 135 -282 376 -474 805 -568 1265 -26 123 -30 150
-42 240 -3 25 -8 61 -10 80 -3 19 -7 141 -10 270 -4 210 1 324 20 470 4 25 8
59 10 75 3 17 11 66 20 110 9 44 18 91 21 105 9 48 55 216 81 295 104 322 271
644 476 920 362 485 854 860 1417 1080 25 9 56 22 70 27 135 54 473 137 630
154 19 2 45 6 57 9 13 3 60 8 105 11 46 4 85 8 87 10 6 6 500 -3 531 -9z"/>
<path d="M2075 5572 c-38 -13 -57 -27 -80 -60 -27 -40 -30 -50 -30 -127 1
-115 25 -151 150 -217 113 -59 123 -71 120 -143 -3 -64 -21 -86 -68 -81 -38 4
-60 28 -62 68 l-2 33 -59 0 c-32 0 -65 -1 -72 -4 -16 -4 -8 -90 13 -130 61
-118 288 -129 363 -17 33 49 42 176 18 241 -21 53 -51 78 -162 133 -89 44
-103 65 -97 132 4 44 24 63 63 62 44 -1 60 -18 60 -63 l0 -39 73 0 74 0 -4 51
c-6 89 -51 149 -129 168 -60 15 -111 13 -169 -7z"/>
<path d="M2607 5575 c-22 -7 -50 -24 -64 -37 -50 -46 -54 -71 -54 -335 0 -217
2 -248 19 -287 23 -52 61 -80 124 -93 81 -18 158 0 200 45 39 42 50 69 54 138
l3 64 -74 0 -73 0 0 -47 c0 -55 -26 -85 -64 -75 -45 11 -48 24 -47 255 0 202
2 220 20 238 36 36 88 15 90 -37 4 -75 -1 -69 64 -70 33 0 66 2 73 4 31 11 3
150 -41 199 -42 47 -154 66 -230 38z"/>
<path d="M2999 5585 c-1 0 -2 -170 -3 -378 -1 -329 1 -378 14 -381 8 -2 40 -4
71 -4 l57 -1 1 151 c0 82 3 153 6 158 2 4 27 7 55 7 l50 0 0 -157 0 -158 70 1
c42 0 70 5 71 11 4 49 0 736 -4 742 -3 5 -20 8 -39 7 -18 -1 -48 -2 -65 -2
l-33 -1 -2 -162 -3 -161 -53 -1 -52 -1 -1 90 c0 50 0 123 0 163 1 52 -2 72
-11 73 -11 0 -126 4 -129 4z"/>
<path d="M3548 5580 l-37 -5 1 -377 0 -377 72 2 71 2 0 377 c0 208 -2 378 -5
379 -24 3 -72 3 -102 -1z"/>
<path d="M3915 5583 c-53 -14 -87 -39 -112 -81 l-27 -46 -1 -230 c-1 -127 3
-251 8 -275 12 -59 70 -116 128 -127 87 -16 157 -4 204 37 39 35 56 79 60 155
l2 54 -73 0 -74 0 0 -43 c0 -54 -18 -79 -55 -79 -52 0 -55 15 -55 254 0 205 1
219 20 238 24 24 38 25 68 4 17 -12 22 -25 22 -63 l0 -47 68 0 c37 0 70 4 74
10 12 18 -4 121 -25 160 -13 24 -38 47 -61 60 -39 20 -130 30 -171 19z"/>
<path d="M4296 5578 c-9 -5 -12 -96 -11 -380 l0 -373 70 0 70 0 1 88 c0 75 5
96 29 147 16 33 30 58 32 56 3 -3 103 -287 103 -292 0 -6 142 1 146 7 3 6 -79
222 -116 304 -5 11 -20 47 -33 79 l-25 60 79 153 c88 172 90 156 -21 154 -30
-1 -57 -4 -61 -9 -4 -4 -33 -72 -65 -152 -31 -80 -60 -148 -63 -152 -3 -4 -6
65 -5 152 l0 160 -25 1 c-14 0 -41 1 -59 2 -18 1 -39 -1 -46 -5z"/>
<path d="M1921 4680 c-3 -3 -6 -366 -6 -807 l0 -803 137 0 138 0 2 476 3 477
49 -144 c83 -247 174 -508 180 -518 3 -5 39 -8 79 -8 l74 1 113 343 c63 188
116 340 119 338 3 -2 6 -220 6 -484 l0 -481 131 0 c97 0 133 3 136 13 4 10 3
1583 -1 1597 -2 9 -271 4 -280 -6 -5 -5 -14 -25 -19 -44 -6 -19 -45 -134 -87
-255 -42 -121 -102 -295 -133 -387 -31 -93 -59 -168 -62 -168 -3 0 -70 195
-150 432 l-145 433 -138 0 c-76 0 -142 -2 -146 -5z"/>
<path d="M3634 4678 c-3 -4 -32 -110 -64 -235 -33 -126 -64 -244 -70 -263 -5
-19 -39 -147 -75 -285 -88 -340 -205 -786 -211 -807 -5 -17 7 -18 145 -18 163
0 154 -3 165 60 2 14 12 62 22 108 l17 82 177 0 c134 0 177 -3 177 -12 1 -20
41 -201 48 -220 6 -16 23 -18 155 -18 l148 0 -44 168 c-24 92 -71 268 -103
392 -32 124 -102 392 -156 595 -54 204 -102 389 -107 413 -5 23 -13 43 -16 43
-32 5 -205 3 -208 -3z m120 -615 c4 -21 9 -51 12 -68 3 -16 25 -115 49 -220
23 -104 41 -191 40 -193 -4 -4 -227 -3 -231 1 -2 1 12 75 31 162 20 88 37 171
40 185 3 14 9 40 14 58 5 18 10 35 10 37 5 45 15 84 21 80 4 -2 10 -21 14 -42z"/>
<path d="M4419 4665 c-1 -27 -1 -1555 0 -1577 1 -17 26 -18 381 -18 331 0 380
2 380 15 1 19 1 175 0 218 l0 32 -230 -1 -230 -1 -2 676 -3 676 -147 0 c-141
0 -148 -1 -149 -20z"/>
<path d="M4680 2949 c-19 -5 -51 -11 -70 -14 -51 -8 -131 -51 -175 -93 -21
-20 -52 -66 -69 -102 l-31 -65 0 -540 c0 -536 0 -540 22 -595 43 -107 142
-185 270 -216 57 -14 267 -13 320 1 128 35 206 93 255 193 l33 67 3 526 c2
503 1 529 -18 591 -38 125 -152 217 -300 243 -56 10 -202 12 -240 4z m184
-286 c67 -32 67 -32 68 -534 l1 -449 -26 -39 c-19 -29 -36 -41 -67 -49 -82
-21 -157 4 -184 62 -15 31 -16 86 -16 486 1 499 -1 481 65 521 38 24 113 25
159 2z"/>
<path d="M1919 2918 c-2 -76 1 -229 4 -235 3 -5 94 -8 204 -7 109 1 201 -1
205 -3 3 -1 -93 -249 -214 -550 l-219 -548 -2 -122 c-1 -75 2 -124 8 -126 6
-2 177 -3 380 -3 l370 1 3 133 3 132 -227 0 c-177 0 -225 3 -221 13 3 6 86
217 186 467 100 250 185 464 190 475 53 117 61 155 61 275 l0 120 -365 0 -365
0 -1 -22z"/>
<path d="M2784 2881 c4 -32 8 -67 10 -78 6 -28 15 -93 21 -143 3 -25 8 -56 10
-70 2 -14 7 -45 10 -70 3 -25 7 -54 9 -65 2 -11 7 -42 10 -70 4 -27 16 -113
27 -190 11 -77 22 -158 25 -180 2 -22 7 -51 9 -65 2 -14 6 -45 10 -70 3 -25 8
-56 10 -70 3 -14 7 -45 10 -70 3 -25 7 -56 10 -70 2 -14 7 -45 10 -70 3 -25 8
-56 10 -70 3 -14 7 -45 10 -70 11 -99 18 -129 29 -132 6 -2 71 -4 145 -3 l135
0 18 90 c9 50 20 104 22 120 3 17 8 44 11 60 3 17 17 92 31 167 14 76 27 146
29 157 2 10 6 34 9 52 3 19 12 66 20 104 8 39 17 88 20 110 14 92 29 154 36
150 4 -3 11 -31 16 -62 4 -32 8 -60 9 -63 1 -3 5 -25 9 -50 4 -25 21 -121 38
-215 37 -214 34 -197 59 -344 11 -69 22 -127 24 -130 3 -6 17 -106 18 -128 0
-16 -11 -15 154 -17 l142 -1 7 50 c4 27 8 57 9 65 3 30 17 126 21 145 2 11 7
44 10 74 3 30 7 62 9 70 5 27 14 93 20 141 3 25 8 56 10 70 2 14 7 43 10 65 3
22 8 51 10 65 2 14 6 45 9 70 3 25 8 61 11 80 28 205 47 339 50 360 4 31 15
106 20 140 2 14 7 48 11 75 3 28 10 71 14 98 l7 47 -153 0 c-116 0 -154 -3
-155 -12 -1 -7 -2 -24 -4 -38 -1 -14 -5 -62 -9 -107 -3 -46 -8 -107 -11 -135
-5 -57 -12 -154 -20 -258 -5 -72 -15 -185 -20 -241 -5 -48 -18 -236 -19 -271
-1 -30 -15 -39 -17 -10 -1 23 -8 67 -19 127 -5 28 -12 67 -16 89 -3 21 -8 48
-10 60 -5 24 -12 64 -19 104 -2 15 -18 110 -35 212 -17 102 -33 199 -36 215
-2 17 -9 53 -14 80 -5 28 -13 68 -16 90 -3 22 -8 47 -9 55 -2 8 -4 21 -4 28
-1 9 -32 12 -121 12 -107 0 -120 -2 -121 -17 0 -10 -2 -25 -4 -33 -3 -18 -9
-53 -24 -140 -6 -36 -13 -74 -15 -85 -2 -11 -7 -42 -10 -69 -4 -27 -9 -52 -10
-55 -2 -3 -7 -26 -10 -51 -3 -25 -8 -56 -11 -70 -6 -29 -13 -68 -19 -107 -3
-16 -12 -68 -20 -118 -9 -49 -18 -106 -21 -125 -17 -104 -43 -232 -45 -215 -1
11 -3 36 -5 55 -1 19 -6 76 -9 125 -4 50 -9 106 -11 125 -2 19 -7 78 -10 130
-4 52 -8 111 -10 130 -5 57 -16 194 -20 251 -2 30 -7 90 -11 134 -4 44 -7 91
-8 105 l-1 25 -154 3 -154 3 7 -60z"/>
</g>
</svg>
